<svg width="814" height="162" viewBox="0 0 814 162" fill="none" xmlns="http://www.w3.org/2000/svg">
<path d="M71.7622 157.191C75.4117 124.126 103.784 99.3686 137.04 100.232L159.041 100.803C153.88 121.17 140.817 139.513 121.184 150.847C105.497 159.904 88.032 163.092 71.3315 161.093L71.7622 157.191ZM2.33057 95.8816L81.8784 98.367C65.1239 111.985 53.5848 131.933 51.0493 154.906L50.939 155.901C34.6958 149.425 20.432 137.645 11.0103 121.326C6.3663 113.282 3.26553 104.771 1.61572 96.1355L2.33057 95.8592V95.8816ZM58.4526 3.50174C93.2698 -6.59373 131.768 7.87216 150.706 40.6726C157.875 53.0904 161.366 66.6228 161.518 80.0076L52.3687 76.5974L104.182 56.6521C118.331 51.2048 116.826 30.8855 102.37 27.3709L101.672 27.2166L35.8716 14.0555C37.3811 13.0433 38.9346 12.0742 40.5317 11.1521C41.368 10.6693 42.2092 10.2032 43.0552 9.75369L58.5708 3.81033L58.4526 3.50174ZM79.144 43.9607L0.481934 74.243C1.79132 58.8291 7.50978 43.9417 17.1118 31.5535L79.144 43.9607Z" fill="#8273FF"/>
<path d="M214.247 123V38.4771H234.461V123H214.247ZM243.091 123V58.4552H261.414L261.768 70.0401C262.556 67.6758 263.62 65.7056 264.96 64.1294C266.3 62.4744 267.797 61.0953 269.452 59.9919C271.186 58.8886 273.077 58.1005 275.126 57.6277C277.254 57.076 279.461 56.8002 281.746 56.8002C285.214 56.8002 288.327 57.3518 291.085 58.4552C293.843 59.5585 296.168 61.1741 298.06 63.3019C300.03 65.3509 301.527 67.9122 302.552 70.9858C303.655 74.0593 304.207 77.5269 304.207 81.3885V123H284.583V87.5356C284.583 85.0925 284.386 82.9647 283.992 81.1521C283.598 79.3395 283.007 77.8421 282.219 76.66C281.431 75.4779 280.407 74.611 279.146 74.0593C277.885 73.5076 276.348 73.2318 274.535 73.2318C272.723 73.2318 271.068 73.547 269.57 74.1775C268.152 74.7292 266.93 75.6355 265.906 76.8964C264.881 78.0786 264.093 79.5365 263.541 81.2703C263.069 83.0041 262.832 85.0925 262.832 87.5356V123H243.091ZM309.294 101.012H328.799C329.035 104.243 330.178 106.726 332.227 108.459C334.276 110.193 337.231 111.06 341.093 111.06C342.512 111.06 343.812 110.942 344.994 110.705C346.255 110.39 347.319 109.996 348.186 109.523C349.132 108.972 349.841 108.302 350.314 107.514C350.865 106.726 351.141 105.78 351.141 104.677C351.141 103.416 350.747 102.391 349.959 101.603C349.171 100.736 348.107 100.066 346.767 99.5934C345.428 99.0417 343.812 98.6082 341.921 98.293C340.029 97.899 337.941 97.5443 335.655 97.2291C332.976 96.8351 330.139 96.2834 327.144 95.5741C324.228 94.8648 321.509 93.8403 318.987 92.5006C316.544 91.082 314.534 89.23 312.958 86.9445C311.382 84.5803 310.594 81.5067 310.594 77.7239C310.594 74.5716 311.185 71.7344 312.367 69.2126C313.628 66.6119 315.48 64.4052 317.923 62.5926C320.366 60.7012 323.361 59.2827 326.907 58.3369C330.533 57.3124 334.71 56.8002 339.438 56.8002C344.245 56.8002 348.462 57.3518 352.087 58.4552C355.712 59.4797 358.786 60.977 361.308 62.9473C363.829 64.9175 365.8 67.3212 367.218 70.1583C368.716 72.9954 369.622 76.2266 369.937 79.8518H350.432C350.117 76.857 348.974 74.5322 347.004 72.8772C345.112 71.2222 342.512 70.3947 339.202 70.3947C337.625 70.3947 336.286 70.5917 335.182 70.9858C334.079 71.301 333.173 71.7344 332.463 72.2861C331.754 72.759 331.203 73.35 330.808 74.0593C330.493 74.7686 330.336 75.5567 330.336 76.4236C330.336 77.6845 330.73 78.7484 331.518 79.6153C332.306 80.4034 333.37 81.0733 334.71 81.625C336.049 82.1766 337.625 82.6495 339.438 83.0435C341.251 83.3587 343.181 83.674 345.231 83.9892C348.146 84.3833 351.102 84.9349 354.097 85.6442C357.17 86.3535 359.928 87.4174 362.371 88.836C364.893 90.1757 366.942 92.0671 368.519 94.5102C370.173 96.8745 371.001 99.9874 371.001 103.849C371.001 107.317 370.292 110.351 368.873 112.951C367.533 115.473 365.563 117.641 362.962 119.453C360.362 121.187 357.209 122.487 353.505 123.354C349.801 124.221 345.664 124.655 341.093 124.655C336.049 124.655 331.557 124.103 327.617 123C323.755 121.896 320.485 120.359 317.805 118.389C315.204 116.34 313.195 113.858 311.776 110.942C310.358 108.026 309.53 104.716 309.294 101.012ZM382.252 98.7659V74.1775H373.032V58.4552H382.252V42.851H401.876V58.4552H422.09V74.1775H401.876V97.8202C401.876 99.8692 402.152 101.564 402.703 102.903C403.255 104.164 404.004 105.189 404.949 105.977C405.895 106.765 407.077 107.317 408.496 107.632C409.914 107.947 411.491 108.105 413.224 108.105C414.564 108.105 415.983 108.026 417.48 107.868C418.977 107.711 420.514 107.474 422.09 107.159V123C419.174 123.472 416.455 123.866 413.934 124.182C411.491 124.497 409.087 124.655 406.723 124.655C402.703 124.655 399.157 124.142 396.083 123.118C393.01 122.093 390.449 120.556 388.4 118.507C386.351 116.38 384.814 113.7 383.789 110.469C382.765 107.238 382.252 103.337 382.252 98.7659ZM427.065 106.686C427.065 101.091 428.956 96.7956 432.739 93.8009C436.6 90.7274 442.275 88.4813 449.761 87.0628L471.749 82.9253V82.4524C471.749 78.6696 470.685 75.8325 468.557 73.9411C466.508 72.0497 463.671 71.104 460.046 71.104C456.106 71.104 453.15 72.0891 451.18 74.0593C449.289 76.0295 448.185 78.8272 447.87 82.4524H428.128C428.444 78.0392 429.429 74.2563 431.084 71.104C432.818 67.8728 435.103 65.1933 437.94 63.0655C440.777 60.9376 444.048 59.3615 447.752 58.3369C451.456 57.3124 455.554 56.8002 460.046 56.8002C469.818 56.8002 477.384 59.125 482.743 63.7748C488.102 68.3457 490.781 75.0838 490.781 83.9892V123H472.577L472.222 113.897C471.197 115.473 469.897 116.931 468.321 118.271C466.824 119.532 465.05 120.635 463.001 121.581C461.031 122.527 458.824 123.275 456.381 123.827C454.017 124.379 451.495 124.655 448.816 124.655C446.057 124.655 443.339 124.3 440.659 123.591C438.058 122.96 435.733 121.936 433.684 120.517C431.714 119.099 430.099 117.247 428.838 114.961C427.656 112.676 427.065 109.917 427.065 106.686ZM447.043 103.613C447.043 105.898 447.87 107.632 449.525 108.814C451.18 109.917 453.465 110.469 456.381 110.469C458.746 110.469 460.834 110.114 462.647 109.405C464.538 108.696 466.154 107.671 467.493 106.332C468.833 104.992 469.858 103.416 470.567 101.603C471.355 99.7116 471.749 97.5837 471.749 95.2195V92.8552L456.027 96.047C452.874 96.5986 450.589 97.5049 449.17 98.7659C447.752 99.948 447.043 101.564 447.043 103.613ZM497.265 90.6092C497.265 85.5654 498.092 80.9945 499.747 76.8964C501.402 72.7196 503.727 69.1732 506.722 66.2572C509.716 63.2625 513.342 60.9376 517.597 59.2827C521.853 57.6277 526.621 56.8002 531.901 56.8002C536.472 56.8002 540.649 57.4307 544.432 58.6916C548.293 59.9525 551.682 61.7651 554.598 64.1294C557.514 66.4149 559.918 69.2126 561.809 72.5225C563.779 75.7537 565.04 79.4183 565.592 83.5164H545.496C545.102 81.7826 544.471 80.2458 543.604 78.906C542.816 77.5663 541.831 76.4236 540.649 75.4779C539.546 74.5322 538.245 73.8229 536.748 73.35C535.251 72.7984 533.635 72.5225 531.901 72.5225C529.537 72.5225 527.448 72.956 525.636 73.8229C523.823 74.611 522.286 75.7931 521.026 77.3693C519.765 78.9455 518.779 80.8763 518.07 83.1617C517.44 85.3684 517.124 87.8508 517.124 90.6092C517.124 93.4463 517.44 96.0076 518.07 98.293C518.779 100.5 519.765 102.391 521.026 103.967C522.286 105.543 523.823 106.765 525.636 107.632C527.527 108.499 529.616 108.932 531.901 108.932C533.714 108.932 535.369 108.656 536.866 108.105C538.442 107.553 539.782 106.804 540.885 105.859C542.067 104.834 543.053 103.613 543.841 102.194C544.629 100.697 545.22 99.0417 545.614 97.2291H565.828C565.198 101.406 563.937 105.189 562.046 108.578C560.154 111.888 557.75 114.764 554.835 117.207C551.919 119.571 548.49 121.423 544.55 122.763C540.688 124.024 536.433 124.655 531.783 124.655C526.582 124.655 521.853 123.827 517.597 122.172C513.342 120.517 509.716 118.232 506.722 115.316C503.727 112.321 501.402 108.735 499.747 104.558C498.092 100.381 497.265 95.7317 497.265 90.6092ZM571.992 123V58.4552H591.497V123H571.992ZM571.756 52.5445V36.4675H591.734V52.5445H571.756ZM598.508 90.6092C598.508 85.6442 599.335 81.0733 600.99 76.8964C602.645 72.7196 604.97 69.1732 607.965 66.2572C610.96 63.2625 614.585 60.9376 618.84 59.2827C623.096 57.6277 627.864 56.8002 633.144 56.8002C638.346 56.8002 643.074 57.6277 647.33 59.2827C651.586 60.9376 655.211 63.2625 658.205 66.2572C661.279 69.1732 663.643 72.7196 665.298 76.8964C666.953 81.0733 667.781 85.6836 667.781 90.7274C667.781 95.7711 666.953 100.381 665.298 104.558C663.643 108.735 661.279 112.321 658.205 115.316C655.211 118.232 651.586 120.517 647.33 122.172C643.074 123.827 638.346 124.655 633.144 124.655C627.864 124.655 623.096 123.827 618.84 122.172C614.585 120.517 610.96 118.232 607.965 115.316C604.97 112.321 602.645 108.735 600.99 104.558C599.335 100.381 598.508 95.7317 598.508 90.6092ZM618.368 90.6092C618.368 93.4463 618.683 96.0076 619.313 98.293C620.023 100.5 620.968 102.391 622.15 103.967C623.411 105.543 624.948 106.765 626.761 107.632C628.652 108.499 630.78 108.932 633.144 108.932C635.509 108.932 637.597 108.499 639.41 107.632C641.222 106.765 642.759 105.543 644.02 103.967C645.281 102.391 646.227 100.5 646.857 98.293C647.487 96.0076 647.803 93.4463 647.803 90.6092C647.803 87.9297 647.487 85.4866 646.857 83.2799C646.227 80.9945 645.281 79.0637 644.02 77.4875C642.759 75.8325 641.222 74.611 639.41 73.8229C637.597 72.956 635.509 72.5225 633.144 72.5225C630.78 72.5225 628.652 72.956 626.761 73.8229C624.948 74.611 623.411 75.8325 622.15 77.4875C620.968 79.0637 620.023 80.9945 619.313 83.2799C618.683 85.4866 618.368 87.9297 618.368 90.6092ZM674.5 123V58.4552H692.823L693.177 70.0401C693.965 67.6758 695.029 65.7056 696.369 64.1294C697.709 62.4744 699.206 61.0953 700.861 59.9919C702.595 58.8886 704.486 58.1005 706.535 57.6277C708.663 57.076 710.87 56.8002 713.155 56.8002C716.623 56.8002 719.736 57.3518 722.494 58.4552C725.252 59.5585 727.577 61.1741 729.469 63.3019C731.439 65.3509 732.936 67.9122 733.961 70.9858C735.064 74.0593 735.616 77.5269 735.616 81.3885V123H715.992V87.5356C715.992 85.0925 715.795 82.9647 715.401 81.1521C715.007 79.3395 714.416 77.8421 713.628 76.66C712.84 75.4779 711.815 74.611 710.555 74.0593C709.294 73.5076 707.757 73.2318 705.944 73.2318C704.132 73.2318 702.477 73.547 700.979 74.1775C699.561 74.7292 698.339 75.6355 697.315 76.8964C696.29 78.0786 695.502 79.5365 694.95 81.2703C694.478 83.0041 694.241 85.0925 694.241 87.5356V123H674.5ZM742.003 90.6092C742.003 85.5654 742.83 80.9945 744.485 76.8964C746.14 72.7196 748.465 69.1732 751.46 66.2572C754.455 63.2625 758.08 60.9376 762.336 59.2827C766.591 57.6277 771.28 56.8002 776.403 56.8002C781.604 56.8002 786.254 57.6277 790.352 59.2827C794.529 60.8588 798.075 63.1443 800.991 66.139C803.907 69.0549 806.114 72.6013 807.611 76.7782C809.187 80.8763 809.976 85.4472 809.976 90.4909V95.3377H762.217C762.533 97.5443 763.084 99.554 763.872 101.367C764.66 103.1 765.646 104.598 766.828 105.859C768.01 107.041 769.389 107.986 770.965 108.696C772.62 109.326 774.472 109.641 776.521 109.641C778.019 109.641 779.398 109.444 780.659 109.05C781.92 108.656 783.062 108.144 784.087 107.514C785.111 106.804 786.018 105.937 786.806 104.913C787.594 103.888 788.264 102.746 788.815 101.485H809.503C807.532 108.656 803.671 114.331 797.918 118.507C792.165 122.606 785.033 124.655 776.521 124.655C771.32 124.655 766.591 123.827 762.336 122.172C758.08 120.517 754.455 118.232 751.46 115.316C748.465 112.321 746.14 108.735 744.485 104.558C742.83 100.381 742.003 95.7317 742.003 90.6092ZM762.336 85.526H790.352C790.037 83.3982 789.525 81.5067 788.815 79.8518C788.106 78.118 787.16 76.66 785.978 75.4779C784.796 74.2957 783.417 73.3894 781.841 72.759C780.265 72.1285 778.491 71.8133 776.521 71.8133C774.551 71.8133 772.738 72.1285 771.083 72.759C769.507 73.3894 768.128 74.2957 766.946 75.4779C765.764 76.66 764.779 78.118 763.991 79.8518C763.203 81.5067 762.651 83.3982 762.336 85.526Z" fill="white"/>
</svg>
