<svg width="814" height="162" viewBox="0 0 814 162" fill="none" xmlns="http://www.w3.org/2000/svg">
<path d="M71.7622 157.192C75.4116 124.127 103.784 99.3696 137.04 100.233L159.041 100.804C153.88 121.171 140.816 139.513 121.184 150.847C105.497 159.904 88.0321 163.092 71.3315 161.093L71.7622 157.192ZM2.33057 95.8826L81.8784 98.367C65.1239 111.985 53.5848 131.933 51.0493 154.906L50.939 155.901C34.6959 149.426 20.432 137.646 11.0103 121.327C6.36635 113.283 3.26656 104.772 1.6167 96.1365L2.33057 95.8611V95.8826ZM58.4526 3.50272C93.27 -6.59288 131.768 7.87282 150.706 40.6736C157.875 53.0916 161.366 66.6236 161.518 80.0086L52.3677 76.5984L104.182 56.6521C118.331 51.2047 116.826 30.8865 102.37 27.3719L101.672 27.2176L35.8716 14.0555C37.381 13.0433 38.9347 12.0742 40.5317 11.1521C41.3691 10.6687 42.212 10.2028 43.0591 9.75272L58.5708 3.81131L58.4526 3.50272ZM79.144 43.9607L0.481934 74.2439C1.79122 58.83 7.50983 43.9428 17.1118 31.5545L79.144 43.9607Z" fill="#4530F6"/>
<path d="M214.247 123V38.4776H234.461V123H214.247ZM243.091 123V58.4556H261.414L261.768 70.0405C262.556 67.6762 263.62 65.706 264.96 64.1298C266.3 62.4748 267.797 61.0957 269.452 59.9924C271.186 58.889 273.077 58.101 275.126 57.6281C277.254 57.0764 279.461 56.8006 281.746 56.8006C285.214 56.8006 288.327 57.3523 291.085 58.4556C293.843 59.5589 296.168 61.1745 298.06 63.3023C300.03 65.3514 301.527 67.9126 302.552 70.9862C303.655 74.0597 304.207 77.5273 304.207 81.389V123H284.583V87.536C284.583 85.093 284.386 82.9651 283.992 81.1525C283.598 79.3399 283.007 77.8426 282.219 76.6604C281.431 75.4783 280.407 74.6114 279.146 74.0597C277.885 73.5081 276.348 73.2322 274.535 73.2322C272.723 73.2322 271.068 73.5475 269.57 74.1779C268.152 74.7296 266.93 75.6359 265.906 76.8969C264.881 78.079 264.093 79.5369 263.541 81.2707C263.069 83.0045 262.832 85.093 262.832 87.536V123H243.091ZM309.294 101.012H328.799C329.035 104.244 330.178 106.726 332.227 108.46C334.276 110.194 337.231 111.06 341.093 111.06C342.512 111.06 343.812 110.942 344.994 110.706C346.255 110.391 347.319 109.997 348.186 109.524C349.132 108.972 349.841 108.302 350.314 107.514C350.865 106.726 351.141 105.78 351.141 104.677C351.141 103.416 350.747 102.391 349.959 101.603C349.171 100.737 348.107 100.067 346.767 99.5938C345.428 99.0421 343.812 98.6087 341.921 98.2934C340.029 97.8994 337.941 97.5448 335.655 97.2295C332.976 96.8355 330.139 96.2838 327.144 95.5745C324.228 94.8653 321.509 93.8407 318.987 92.501C316.544 91.0824 314.534 89.2304 312.958 86.945C311.382 84.5807 310.594 81.5072 310.594 77.7243C310.594 74.572 311.185 71.7349 312.367 69.213C313.628 66.6123 315.48 64.4057 317.923 62.5931C320.366 60.7016 323.361 59.2831 326.907 58.3374C330.533 57.3129 334.71 56.8006 339.438 56.8006C344.245 56.8006 348.462 57.3523 352.087 58.4556C355.712 59.4801 358.786 60.9775 361.308 62.9477C363.829 64.9179 365.8 67.3216 367.218 70.1587C368.716 72.9958 369.622 76.227 369.937 79.8522H350.432C350.117 76.8574 348.974 74.5326 347.004 72.8776C345.112 71.2226 342.512 70.3951 339.202 70.3951C337.625 70.3951 336.286 70.5921 335.182 70.9862C334.079 71.3014 333.173 71.7349 332.463 72.2865C331.754 72.7594 331.203 73.3505 330.808 74.0597C330.493 74.769 330.336 75.5571 330.336 76.424C330.336 77.6849 330.73 78.7489 331.518 79.6158C332.306 80.4038 333.37 81.0737 334.71 81.6254C336.049 82.177 337.625 82.6499 339.438 83.0439C341.251 83.3592 343.181 83.6744 345.231 83.9896C348.146 84.3837 351.102 84.9353 354.097 85.6446C357.17 86.3539 359.928 87.4178 362.371 88.8364C364.893 90.1761 366.942 92.0675 368.519 94.5106C370.173 96.8749 371.001 99.9878 371.001 103.849C371.001 107.317 370.292 110.351 368.873 112.952C367.533 115.474 365.563 117.641 362.962 119.454C360.362 121.187 357.209 122.488 353.505 123.355C349.801 124.222 345.664 124.655 341.093 124.655C336.049 124.655 331.557 124.103 327.617 123C323.755 121.897 320.485 120.36 317.805 118.39C315.204 116.341 313.195 113.858 311.776 110.942C310.358 108.026 309.53 104.716 309.294 101.012ZM382.252 98.7663V74.1779H373.032V58.4556H382.252V42.8514H401.876V58.4556H422.09V74.1779H401.876V97.8206C401.876 99.8696 402.152 101.564 402.703 102.904C403.255 104.165 404.004 105.189 404.949 105.977C405.895 106.765 407.077 107.317 408.496 107.632C409.914 107.948 411.491 108.105 413.224 108.105C414.564 108.105 415.983 108.026 417.48 107.869C418.977 107.711 420.514 107.475 422.09 107.159V123C419.174 123.473 416.455 123.867 413.934 124.182C411.491 124.497 409.087 124.655 406.723 124.655C402.703 124.655 399.157 124.143 396.083 123.118C393.01 122.094 390.449 120.557 388.4 118.508C386.351 116.38 384.814 113.701 383.789 110.469C382.765 107.238 382.252 103.337 382.252 98.7663ZM427.065 106.687C427.065 101.091 428.956 96.7961 432.739 93.8013C436.6 90.7278 442.275 88.4817 449.761 87.0632L471.749 82.9257V82.4529C471.749 78.67 470.685 75.8329 468.557 73.9415C466.508 72.0501 463.671 71.1044 460.046 71.1044C456.106 71.1044 453.15 72.0895 451.18 74.0597C449.289 76.03 448.185 78.8277 447.87 82.4529H428.128C428.444 78.0396 429.429 74.2568 431.084 71.1044C432.818 67.8732 435.103 65.1937 437.94 63.0659C440.777 60.9381 444.048 59.3619 447.752 58.3374C451.456 57.3129 455.554 56.8006 460.046 56.8006C469.818 56.8006 477.384 59.1255 482.743 63.7752C488.102 68.3461 490.781 75.0842 490.781 83.9896V123H472.577L472.222 113.898C471.197 115.474 469.897 116.932 468.321 118.271C466.824 119.532 465.05 120.636 463.001 121.581C461.031 122.527 458.824 123.276 456.381 123.827C454.017 124.379 451.495 124.655 448.816 124.655C446.057 124.655 443.339 124.3 440.659 123.591C438.058 122.961 435.733 121.936 433.684 120.518C431.714 119.099 430.099 117.247 428.838 114.962C427.656 112.676 427.065 109.918 427.065 106.687ZM447.043 103.613C447.043 105.898 447.87 107.632 449.525 108.814C451.18 109.918 453.465 110.469 456.381 110.469C458.746 110.469 460.834 110.115 462.647 109.405C464.538 108.696 466.154 107.672 467.493 106.332C468.833 104.992 469.858 103.416 470.567 101.603C471.355 99.712 471.749 97.5842 471.749 95.2199V92.8556L456.027 96.0474C452.874 96.5991 450.589 97.5054 449.17 98.7663C447.752 99.9484 447.043 101.564 447.043 103.613ZM497.265 90.6096C497.265 85.5658 498.092 80.9949 499.747 76.8969C501.402 72.72 503.727 69.1736 506.722 66.2577C509.716 63.2629 513.342 60.9381 517.597 59.2831C521.853 57.6281 526.621 56.8006 531.901 56.8006C536.472 56.8006 540.649 57.4311 544.432 58.692C548.293 59.953 551.682 61.7656 554.598 64.1298C557.514 66.4153 559.918 69.213 561.809 72.523C563.779 75.7541 565.04 79.4187 565.592 83.5168H545.496C545.102 81.783 544.471 80.2462 543.604 78.9065C542.816 77.5667 541.831 76.424 540.649 75.4783C539.546 74.5326 538.245 73.8233 536.748 73.3505C535.251 72.7988 533.635 72.523 531.901 72.523C529.537 72.523 527.448 72.9564 525.636 73.8233C523.823 74.6114 522.286 75.7935 521.026 77.3697C519.765 78.9459 518.779 80.8767 518.07 83.1622C517.44 85.3688 517.124 87.8513 517.124 90.6096C517.124 93.4467 517.44 96.008 518.07 98.2934C518.779 100.5 519.765 102.391 521.026 103.968C522.286 105.544 523.823 106.765 525.636 107.632C527.527 108.499 529.616 108.933 531.901 108.933C533.714 108.933 535.369 108.657 536.866 108.105C538.442 107.553 539.782 106.805 540.885 105.859C542.067 104.835 543.053 103.613 543.841 102.194C544.629 100.697 545.22 99.0421 545.614 97.2295H565.828C565.198 101.406 563.937 105.189 562.046 108.578C560.154 111.888 557.75 114.764 554.835 117.208C551.919 119.572 548.49 121.424 544.55 122.764C540.688 124.025 536.433 124.655 531.783 124.655C526.582 124.655 521.853 123.827 517.597 122.173C513.342 120.518 509.716 118.232 506.722 115.316C503.727 112.321 501.402 108.736 499.747 104.559C498.092 100.382 497.265 95.7322 497.265 90.6096ZM571.992 123V58.4556H591.497V123H571.992ZM571.756 52.5449V36.4679H591.734V52.5449H571.756ZM598.508 90.6096C598.508 85.6446 599.335 81.0737 600.99 76.8969C602.645 72.72 604.97 69.1736 607.965 66.2577C610.96 63.2629 614.585 60.9381 618.84 59.2831C623.096 57.6281 627.864 56.8006 633.144 56.8006C638.346 56.8006 643.074 57.6281 647.33 59.2831C651.586 60.9381 655.211 63.2629 658.205 66.2577C661.279 69.1736 663.643 72.72 665.298 76.8969C666.953 81.0737 667.781 85.684 667.781 90.7278C667.781 95.7716 666.953 100.382 665.298 104.559C663.643 108.736 661.279 112.321 658.205 115.316C655.211 118.232 651.586 120.518 647.33 122.173C643.074 123.827 638.346 124.655 633.144 124.655C627.864 124.655 623.096 123.827 618.84 122.173C614.585 120.518 610.96 118.232 607.965 115.316C604.97 112.321 602.645 108.736 600.99 104.559C599.335 100.382 598.508 95.7322 598.508 90.6096ZM618.368 90.6096C618.368 93.4467 618.683 96.008 619.313 98.2934C620.023 100.5 620.968 102.391 622.15 103.968C623.411 105.544 624.948 106.765 626.761 107.632C628.652 108.499 630.78 108.933 633.144 108.933C635.509 108.933 637.597 108.499 639.41 107.632C641.222 106.765 642.759 105.544 644.02 103.968C645.281 102.391 646.227 100.5 646.857 98.2934C647.487 96.008 647.803 93.4467 647.803 90.6096C647.803 87.9301 647.487 85.487 646.857 83.2804C646.227 80.9949 645.281 79.0641 644.02 77.4879C642.759 75.8329 641.222 74.6114 639.41 73.8233C637.597 72.9564 635.509 72.523 633.144 72.523C630.78 72.523 628.652 72.9564 626.761 73.8233C624.948 74.6114 623.411 75.8329 622.15 77.4879C620.968 79.0641 620.023 80.9949 619.313 83.2804C618.683 85.487 618.368 87.9301 618.368 90.6096ZM674.5 123V58.4556H692.823L693.177 70.0405C693.965 67.6762 695.029 65.706 696.369 64.1298C697.709 62.4748 699.206 61.0957 700.861 59.9924C702.595 58.889 704.486 58.101 706.535 57.6281C708.663 57.0764 710.87 56.8006 713.155 56.8006C716.623 56.8006 719.736 57.3523 722.494 58.4556C725.252 59.5589 727.577 61.1745 729.469 63.3023C731.439 65.3514 732.936 67.9126 733.961 70.9862C735.064 74.0597 735.616 77.5273 735.616 81.389V123H715.992V87.536C715.992 85.093 715.795 82.9651 715.401 81.1525C715.007 79.3399 714.416 77.8426 713.628 76.6604C712.84 75.4783 711.815 74.6114 710.555 74.0597C709.294 73.5081 707.757 73.2322 705.944 73.2322C704.132 73.2322 702.477 73.5475 700.979 74.1779C699.561 74.7296 698.339 75.6359 697.315 76.8969C696.29 78.079 695.502 79.5369 694.95 81.2707C694.478 83.0045 694.241 85.093 694.241 87.536V123H674.5ZM742.003 90.6096C742.003 85.5658 742.83 80.9949 744.485 76.8969C746.14 72.72 748.465 69.1736 751.46 66.2577C754.455 63.2629 758.08 60.9381 762.336 59.2831C766.591 57.6281 771.28 56.8006 776.403 56.8006C781.604 56.8006 786.254 57.6281 790.352 59.2831C794.529 60.8593 798.075 63.1447 800.991 66.1394C803.907 69.0554 806.114 72.6018 807.611 76.7786C809.187 80.8767 809.976 85.4476 809.976 90.4914V95.3381H762.217C762.533 97.5448 763.084 99.5544 763.872 101.367C764.66 103.101 765.646 104.598 766.828 105.859C768.01 107.041 769.389 107.987 770.965 108.696C772.62 109.327 774.472 109.642 776.521 109.642C778.019 109.642 779.398 109.445 780.659 109.051C781.92 108.657 783.062 108.145 784.087 107.514C785.111 106.805 786.018 105.938 786.806 104.913C787.594 103.889 788.264 102.746 788.815 101.485H809.503C807.532 108.657 803.671 114.331 797.918 118.508C792.165 122.606 785.033 124.655 776.521 124.655C771.32 124.655 766.591 123.827 762.336 122.173C758.08 120.518 754.455 118.232 751.46 115.316C748.465 112.321 746.14 108.736 744.485 104.559C742.83 100.382 742.003 95.7322 742.003 90.6096ZM762.336 85.5264H790.352C790.037 83.3986 789.525 81.5072 788.815 79.8522C788.106 78.1184 787.16 76.6604 785.978 75.4783C784.796 74.2962 783.417 73.3899 781.841 72.7594C780.265 72.1289 778.491 71.8137 776.521 71.8137C774.551 71.8137 772.738 72.1289 771.083 72.7594C769.507 73.3899 768.128 74.2962 766.946 75.4783C765.764 76.6604 764.779 78.1184 763.991 79.8522C763.203 81.5072 762.651 83.3986 762.336 85.5264Z" fill="#081324"/>
</svg>
